<svg xmlns="http://www.w3.org/2000/svg" id="Layer_2" data-name="Layer 2" viewBox="0 0 360.66 93.46">
  <defs>
    <style>
      .cls-1 {
        fill: #86b9bc;
      }

      .cls-2 {
        fill: #f39d41;
      }

      .cls-3 {
        fill: #bb3941;
      }

      .cls-4 {
        fill: #f9c29c;
      }

      .cls-5 {
        fill: #003141;
      }

      .cls-6 {
        fill: #6e3154;
      }

      .cls-7 {
        fill: #042d39;
      }

      .cls-8 {
        fill: #e75145;
      }
    </style>
  </defs>
  <g id="Layer_1-2" data-name="Layer 1">
    <g>
      <g>
        <path class="cls-3" d="m127.29.36c.17,3.75.04,6.23.09,9.45.05,2.84.29,5.25.16,8.51-.11,2.81.11,5.62.15,8.43.04,2.74.08,5.47.11,8.21.04,2.12.07,4.04.08,6.16,0,.36-.03,1.12-.03,1.47,0,0-4.11-.14-4.67-.08-1.41.16-2.62-.06-3.03-.16-.35-.1-.47-7.36-.46-8.04.04-2.78-.12-6.4-.13-9.18-.01-2.81-.46-7.05-.5-9.86-.04-2.84-.23-5.79-.29-8.64-.06-2.87-.17-3.08-.23-5.94-.01-.58.37-.67,1.12-.64,1.18.05,6.78-.07,7.63.29"/>
        <path class="cls-8" d="m137.55,38.06c.13-.84.23-1.69.33-2.54-.57,0-1.16-.13-1.69-.43-1.02-.58-1.63-1.64-1.7-2.73l-.03-.49c-.01-.15-.01-.3-.02-.46l-.04-.94c-.04-.63-.05-1.25-.09-1.88-.02-.46-.04-.91-.06-1.37.37.22.81.36,1.3.36-.61-.41-1.09-.95-1.36-1.62-.02-.37-.04-.74-.06-1.11-.06-1.24-.16-2.48-.26-3.72-.06-.62-.12-1.23-.2-1.85-.07-.62-.14-1.23-.22-1.84-.13-.93-.3-1.86-.5-2.79.65.5,1.46.68,2.28.48-1.28-.26-2.03-1.06-2.54-2.17-.41-.89-.58-1.86-.82-2.81-.17-.69-.66-2.02-.86-2.71.45.36,1.02.67,1.35.67-.49-.24-.77-.41-1.04-.87-.75-1.28-1.02-2.88-1.25-4.37-.15-.96.18-1.9.91-2.4-.8-.09-1.32-.16-1.32-.16.03.8.06,1.84.09,2.64.04,1.2-.12,3.45-.02,4.64.44,5.3.38,7.26.28,12.98-.05,3.11.4,6.87.35,9.82-.08,4.19-.05,7.13-.23,11.98,0,0,2.83-.25,4.41-.05.48.06,1.24.11,2.18.14.3-1.35.66-3.13.85-4.4"/>
        <path class="cls-1" d="m197.81,42.37c-.02-.8-.05-1.84-.07-2.64-.03-1.2.1-3.45.02-4.65-.35-5.31-.3-7.27-.22-12.99.04-3.12-.32-6.87-.28-9.83.06-4.2.04-7.14.19-12,0,0-.55.25-1.8.05-2.36-.37-15.19-.29-15.19-.29.03.5,0,5.88.05,7.94.1,3.33-.18,5.1-.09,7.2.08,2.04.43,4.06.43,7.13,0,4.67-.47,7.59-.39,10.9.09,3.51.04,2.27-.03,5.78,0,.47.04,2.36.41,3.18,0,0,3.01.58,6.09.46v-14.54h4.05v13.94c2.61-.27,6.83.38,6.83.38m-9.39-37.75h.37v9.84c-.29.06-.52.33-.52.65,0,.37.3.67.67.67s.67-.3.67-.67c0-.31-.21-.56-.49-.64V4.61h.38c0,3.77,4.28,9.57,4.28,9.57-2.01,6.71-1.87,10.42-1.87,10.42h-5.89s.14-3.71-1.87-10.42c0,0,4.28-5.8,4.28-9.57m-3.18,22.97v-2.43h7.43v2.43h-7.43Z"/>
        <path class="cls-6" d="m164.27,27.37c-.31.05-.61.1-.91.14-.45,2.1-1.31,4.08-2.58,5.93-1.34,1.92-3.02,3.26-5.05,4.01-.68.24-1.32.4-1.92.49-.04,2.13-.04,4.38.15,4.44.41.1,5.42.32,6.83.16.56-.06,3.63.08,3.63.08,0-.36.03-1.11.03-1.47,0-2.12-.04-4.04-.08-6.16-.02-2.53-.06-5.07-.1-7.6"/>
        <path class="cls-4" d="m178.77,34.98c-.02-2.73-.06-5.46-.11-8.19-.05-2.81-.27-5.62-.15-8.42.13-3.25-.11-5.66-.16-8.49-.06-3.22.08-5.69-.09-9.43-.86-.36-7.98.05-8.92-.29-.71-.25-3.27.05-3.26.63.06,2.86.12,5.3.18,8.16.06,2.84-.06,5.5-.02,8.33.02,1.63.1,3.32.16,5,.84-.96,1.68-1.91,2.55-2.84,1.08-1.16,2.2-2.28,3.36-3.36.57-.53,1.42-.91,2.56-1.12.26-.05.5-.07.73-.07.79,0,1.43.28,1.9.84.44.55.66,1.1.66,1.67,0,.4-.11.81-.32,1.21-.52,1.01-1.08,1.92-1.69,2.74-.96,1.31-2.2,2.41-3.72,3.3-1.52.9-3.07,1.54-4.65,1.93-.44.11-.86.22-1.29.32,0,2.43,0,4.85-.04,7.28,0,.68-.3,8.06.05,8.17.41.1,4.04.32,5.45.16.56-.06,6.86.08,6.86.08,0-.36.03-1.11.03-1.47,0-2.12-.04-4.03-.08-6.15m-7.11-23.99c-.5.62-1,1.23-1.49,1.85l-2.56-2.4c.49-.63.98-1.25,1.48-1.87.5-.62,1-1.24,1.5-1.87h0s0,0,0,0l2.56,2.4c-.5.64-1,1.27-1.49,1.89"/>
        <path class="cls-4" d="m169.09,8.57c.5-.62,1-1.24,1.5-1.87h0c-.5.63-1,1.25-1.5,1.87-.5.62-1,1.24-1.48,1.87l2.56,2.4-2.56-2.4c.49-.63.98-1.25,1.48-1.87"/>
        <path class="cls-4" d="m174.27,20.82c.17-.08.25-.21.25-.39,0-.15-.06-.34-.2-.57-.23-.4-.63-.69-1.23-.87-.24-.07-.46-.11-.68-.11-.36,0-.69.09-1,.27-.85.46-1.61,1.03-2.28,1.69-.66.66-1.33,1.33-1.99,1.99,1.28-.25,2.52-.52,3.73-.82,1.21-.3,2.33-.69,3.38-1.19"/>
        <path class="cls-8" d="m151.55,27.48c-.05-.98-.18-1.97-.3-3.06-.2.42-.43.87-.68,1.36-.45.87-.78,1.73-1.01,2.6-.12.49-.18.96-.18,1.41,0,.36.04.71.12,1.05.18.76.75,1.35,1.72,1.76.06.01.11.01.17.02.03-2.1.22-3.52.14-5.14"/>
        <path class="cls-8" d="m150.53,37.5c-1.45-.7-2.27-2.21-2.47-4.54-.01-.19-.02-.38-.02-.57,0-2.24,1.04-5.27,3.1-9.08-.08-.88-.14-1.84-.14-2.94,0-4.66.6-7.58.49-10.88-.12-3.5-.05-2.27.04-5.77.01-.47-.05-2.36-.51-3.17,0,0-7.77-1.05-12.47-.03-1.29.28-3.16.28-4.85.18h0c1.34,1.12,2.47,2.43,3.44,3.84v1.34c.14-.28.22-.62.26-.97.58.87,1.11,1.78,1.6,2.7.53.99,1.16,1.95,1.51,3.02.4,1.25.25,2.57-.18,3.86.56-.35.97-.8,1.27-1.32.31.81.6,1.63.85,2.46.19.7.37,1.4.53,2.11.14.71.27,1.42.35,2.13.1.82.3,1.65.21,2.47-.19,1.89-.92,3.6-2.25,4.93.96-.32,1.66-.93,2.17-1.7-.09.96-.23,1.91-.45,2.85-.33,1.41-.79,2.81-1.55,4.15l-.7,1.25c-.37.66-.94,1.14-1.58,1.42.03-.47.06-.94.09-1.41.14-2.94.12-5.89-.08-8.82-.41-5.86-1.53-11.7-3.74-17.12,1.96,5.51,2.8,11.35,2.94,17.15.01.63.02,1.25.02,1.88.1,2.34.1,4.69-.01,7.03-.07,1.47-.18,2.94-.33,4.41-.15,1.37-.32,2.73-.57,4.11,5.12.17,14.01.11,14.01.11-.02-.31-.01-2.6-.02-4.76-.33-.08-.65-.2-.95-.35"/>
        <path class="cls-7" d="m223.76,34.74c-.02-2.74-.06-5.47-.11-8.21-.05-2.81-.27-5.62-.15-8.43.13-3.25-.11-5.67-.16-8.5-.06-3.23.08-5.7-.09-9.45-.86-.36-21.34,0-22.34-.08-1.01-.07-1.15.26-1.14.84.06,2.87.12,4.88.18,7.75.06,2.84-.06,5.51-.02,8.35.04,2.81.24,5.79.25,8.6,0,1.92,0,3.84-.01,5.76.09-.2.18-.4.28-.61,1.27-2.61,2.74-4.58,4.4-5.89-.25-.22-.53-.54-.86-.96-.65-.79-1.04-1.71-1.19-2.76-.06-.42-.08-.82-.08-1.22,0-.6.06-1.18.19-1.73.22-.92.6-1.7,1.12-2.34.51-.62,1.11-.93,1.81-.93h.03c.49.02.95.08,1.38.18.43.1.89.2,1.36.3l-1.19,3.69c-1.01-.3-2-.5-2.98-.6.11.69.29,1.25.53,1.66.24.41.59.81,1.05,1.2.35.35.77.53,1.27.53.43,0,.93-.13,1.48-.4,1.16-.58,2.17-1.29,3.03-2.12l-1.27,3.28c-.2.51-.67,1.04-1.4,1.61-.73.56-1.38,1.09-1.94,1.58-.4.35-1.05.94-1.97,1.77-.92.83-1.79,1.74-2.62,2.72-.83.98-1.47,1.96-1.91,2.93-.2.43-.3.84-.3,1.21,0,.44.15.84.46,1.19.96,1.08,2.11,1.85,3.45,2.31,1.34.46,2.75.72,4.21.76.25,0,.5.01.75.01,1.22,0,2.44-.1,3.67-.3,1.48-.25,2.83-.53,4.07-.85.17-.05.28-.07.35-.07.04,0,.06,0,.06.03,0,0,0,.02-.01.04-1.15,1.39-2.68,2.53-4.57,3.42-1.22.57-2.44.98-3.66,1.23,4.15,0,14.66.09,14.66.09,0-.36.03-1.11.03-1.47,0-2.12-.04-4.04-.08-6.16m-13.79-27.3c-2.67,1.06-5.37,2-8,2.84l-.04-.04.32-1.5c3.03-1.02,6.2-2.08,8.54-2.99l.04.06-.87,1.63Zm0-3.26c-2.67,1.06-5.37,2-8,2.84l-.04-.04.32-1.5c3.03-1.02,6.2-2.08,8.54-2.99l.04.07-.87,1.63Z"/>
        <path class="cls-7" d="m202,41.63c-.83-.41-1.48-.99-1.98-1.73,0,1.24.05,2.19.17,2.23.23.06,1.99.15,3.76.19-.68-.16-1.33-.39-1.95-.7"/>
        <path class="cls-6" d="m164.11,18.33c.13-3.25-.11-5.67-.16-8.5-.06-3.23.08-5.7-.09-9.45-.86-.36-5.36-.2-6.36-.29-1.04-.09-3.98.05-3.97.64.06,2.87.12,5.31.18,8.17.06,2.84-.06,5.51-.02,8.35.04,2.81.24,5.8.25,8.61,0,2.32,0,4.63-.02,6.95,1.11-.04,2.17-.25,3.16-.64,1.75-.68,3.21-1.55,4.37-2.62v-.32c0-.89-.08-1.71-.25-2.47-.2-.85-.43-1.69-.68-2.51l1.99-4.56c.6,1.34,1.03,2.3,1.28,2.87.07.17.19.3.33.4-.05-1.54-.09-3.08-.03-4.62m-2.87-5.33c-.43.85-1.08,1.47-1.96,1.88-.41.19-.8.32-1.17.4-.38.08-.78.13-1.22.17l-.25-.02c.06-.13.59-.44,1.59-.93,1-.49,1.63-.89,1.9-1.21v-.06c-.13-.12-.65-.23-1.56-.32-.27-.02-.51-.04-.72-.04-.53,0-.9.08-1.12.24-.09.07-.21.17-.35.3-.14.14-.24.22-.28.24h-.03c0-.14.11-.46.33-.98.22-.52.53-1.04.94-1.54.22-.26.73-.38,1.55-.38h.46c1.08.06,1.75.22,2.01.47.16.16.24.37.24.63,0,.31-.12.7-.35,1.16"/>
        <path class="cls-2" d="m242.12,27.53c-.08-2.03-.43-4.04-.43-7.09,0-4.65.47-7.56.39-10.85-.09-3.49-.04-2.26.03-5.75,0-.47-.04-2.35-.41-3.16,0,0-4.19-.43-8.45-.47,5.2,9.04,7.24,16.92,6.08,23.43l-4.39,4.39,1.3-.14s.79-.09,1.86-.23c-1.56,3.54-3.95,5.6-5.34,6.57,0,0,0,0,0,0,.04-.13.07-.27.11-.4.5-1.91.91-3.92,1.2-5.94.61-4.31.94-10.54-.79-16.34-.21-.69-.52-1.35-.91-1.95l-.21-.32c-.03.46-.03.92.02,1.38.05.46.14.91.27,1.35,2.05,7.05,1.23,15.37-.55,21.9-.04.13-.07.26-.11.38-2.47-4.16-3.89-8.86-4.13-13.69l3.34,1.54-3.23-5.94c.09-.87.21-1.75.38-2.62l.2-1.05L233.12.21c-.41,0-.82,0-1.23,0-2.41.03-6.73.24-6.73.24.02.8.05,1.83.07,2.63.03,1.19-.1,3.44-.02,4.63.35,5.29.3,7.24.22,12.93-.04,3.1.32,6.84.28,9.79-.06,4.18-.04,7.1-.19,11.94,0,0,.55-.25,1.8-.05.31.05.8.09,1.41.12.14-.37.3-.74.48-1.1.8-1.6,1.58-3.59,2.25-5.82.01.02.02.03.03.05l.22.35.37-.18s.05-.02.13-.07l.16-.07h.02c-.57,1.92-1.23,3.73-1.96,5.31-.25.55-.55,1.07-.89,1.57,4.33.18,12.54.12,12.54.12-.03-.49.01-5.86-.05-7.9-.1-3.32.18-5.07.09-7.16"/>
      </g>
      <g>
        <g>
          <path class="cls-5" d="m.64,77.97h1.69v10.25h6.12v1.5H.64v-11.75Z"/>
          <path class="cls-5" d="m10.02,78.29h1.78v1.78h-1.78v-1.78Zm.11,3.24h1.59v8.19h-1.59v-8.19Z"/>
          <path class="cls-5" d="m14.67,82.85h-1.48v-1.32h1.48v-2.68h1.59v2.68h2.4v1.32h-2.4v4.03c0,.66.1,1.11.31,1.36.21.25.5.37.87.37.31,0,.56-.05.76-.14.2-.09.4-.23.6-.42l.72.97c-.34.33-.69.57-1.05.71-.36.15-.78.22-1.28.22-.87,0-1.51-.23-1.91-.7-.41-.47-.61-1.2-.61-2.2v-4.19Z"/>
          <path class="cls-5" d="m27.68,88.52c-.09.11-.24.24-.42.41-.19.16-.43.32-.73.48s-.65.28-1.06.4c-.41.11-.87.17-1.38.17-.63,0-1.22-.11-1.75-.32-.53-.21-.98-.51-1.36-.9-.38-.39-.67-.85-.87-1.39-.21-.54-.31-1.14-.31-1.8,0-.6.1-1.16.3-1.68.2-.52.48-.97.85-1.36.36-.38.8-.68,1.3-.91.5-.22,1.05-.33,1.65-.33.71,0,1.31.14,1.82.41.51.27.92.63,1.24,1.07.32.45.56.96.71,1.53.15.58.23,1.17.23,1.8h-6.47c.01.36.09.7.24,1,.15.31.34.57.59.79.25.22.53.4.85.53s.65.19,1,.19c.69,0,1.26-.12,1.71-.35.45-.23.77-.46.97-.69l.9.95Zm-1.43-3.61c-.05-.63-.27-1.17-.67-1.62-.4-.45-.96-.67-1.69-.67-.38,0-.71.06-1.01.19-.3.13-.56.3-.77.51-.21.21-.38.46-.49.73-.12.28-.18.56-.19.85h4.83Z"/>
          <path class="cls-5" d="m29.66,89.72v-7.68c0-.11,0-.28-.02-.51h1.52l.05,1.32c.09-.14.22-.3.37-.47.15-.17.34-.33.56-.47.22-.14.47-.26.76-.36.29-.1.62-.15,1-.15.18,0,.34.01.48.04.15.02.28.06.41.11l-.35,1.48c-.21-.08-.48-.12-.81-.12s-.66.06-.94.19c-.29.13-.54.31-.75.54-.21.23-.38.5-.5.8-.12.31-.19.63-.19.97v4.32h-1.59Z"/>
          <path class="cls-5" d="m40.94,88.73c-.31.41-.71.72-1.21.92-.5.2-1.01.3-1.54.3-.34,0-.68-.04-1.01-.13-.33-.09-.64-.23-.92-.44-.28-.21-.5-.47-.67-.79-.17-.32-.26-.72-.26-1.19,0-.88.31-1.59.93-2.11.62-.53,1.51-.79,2.67-.79.19,0,.39,0,.6.02.21.01.41.02.6.04.19.01.35.02.49.04.14.01.24.02.3.04v-.3c0-.61-.18-1.05-.56-1.31-.37-.26-.87-.4-1.51-.4s-1.12.09-1.48.26c-.36.17-.67.34-.92.52l-.74-1.07c.14-.12.31-.23.51-.35.2-.12.43-.23.71-.33.27-.1.58-.18.92-.25.34-.06.73-.1,1.18-.1,1.06,0,1.89.26,2.49.77.61.51.91,1.24.91,2.18v5.08c0,.11,0,.25.02.41h-1.48l-.04-.99Zm-.02-2.89s-.14-.03-.27-.04c-.14-.02-.29-.03-.47-.04-.18-.01-.36-.02-.56-.03-.2-.01-.39-.02-.58-.02-.45,0-.81.05-1.08.16-.28.11-.49.24-.65.4-.16.16-.27.33-.33.53-.06.19-.09.38-.09.55,0,.45.15.78.46,1.01.31.23.73.34,1.27.34.31,0,.6-.05.87-.16.28-.11.52-.25.73-.42.21-.18.38-.38.51-.62.13-.23.19-.48.19-.72v-.93Z"/>
          <path class="cls-5" d="m45.31,82.85h-1.48v-1.32h1.48v-2.68h1.59v2.68h2.4v1.32h-2.4v4.03c0,.66.1,1.11.31,1.36.21.25.5.37.87.37.31,0,.56-.05.76-.14.2-.09.4-.23.6-.42l.72.97c-.34.33-.69.57-1.05.71-.36.15-.78.22-1.28.22-.87,0-1.51-.23-1.91-.7-.41-.47-.61-1.2-.61-2.2v-4.19Z"/>
          <path class="cls-5" d="m51.15,81.53h1.59v4.81c0,.78.16,1.34.48,1.68.32.35.78.52,1.37.52.46,0,.84-.09,1.14-.28.3-.19.54-.43.73-.73.19-.3.32-.64.4-1.02.08-.38.11-.77.11-1.17v-3.81h1.59v7.69c0,.17,0,.34.02.5h-1.52l-.05-1.22c-.11.14-.24.29-.39.46-.15.16-.34.31-.56.45-.22.14-.48.25-.78.34-.29.09-.63.14-1,.14-1.07,0-1.86-.31-2.36-.92-.51-.62-.76-1.46-.76-2.53v-4.92Z"/>
          <path class="cls-5" d="m60.76,89.72v-7.68c0-.11,0-.28-.02-.51h1.52l.05,1.32c.09-.14.22-.3.37-.47.15-.17.34-.33.56-.47.22-.14.47-.26.76-.36.29-.1.62-.15,1-.15.18,0,.34.01.48.04.15.02.28.06.41.11l-.35,1.48c-.21-.08-.48-.12-.81-.12s-.66.06-.94.19c-.29.13-.54.31-.75.54-.21.23-.38.5-.5.8-.12.31-.19.63-.19.97v4.32h-1.59Z"/>
          <path class="cls-5" d="m74.21,88.52c-.09.11-.24.24-.42.41-.19.16-.43.32-.73.48s-.65.28-1.06.4c-.41.11-.87.17-1.38.17-.63,0-1.22-.11-1.75-.32-.53-.21-.98-.51-1.36-.9-.38-.39-.67-.85-.87-1.39-.21-.54-.31-1.14-.31-1.8,0-.6.1-1.16.3-1.68.2-.52.48-.97.85-1.36.36-.38.8-.68,1.3-.91.5-.22,1.05-.33,1.65-.33.71,0,1.31.14,1.82.41.51.27.92.63,1.24,1.07.32.45.56.96.71,1.53.15.58.23,1.17.23,1.8h-6.47c.01.36.09.7.24,1,.15.31.34.57.59.79.25.22.53.4.85.53s.65.19,1,.19c.69,0,1.26-.12,1.71-.35.45-.23.77-.46.97-.69l.9.95Zm-1.43-3.61c-.05-.63-.27-1.17-.67-1.62-.4-.45-.96-.67-1.69-.67-.38,0-.71.06-1.01.19-.3.13-.56.3-.77.51s-.38.46-.49.73c-.12.28-.18.56-.19.85h4.83Z"/>
          <path class="cls-5" d="m77.05,89.72h-.71v-1.96h1.99v1.94l-1.22,2.08h-.97l.9-2.06Z"/>
          <path class="cls-5" d="m84.12,77.97h3.72c.8,0,1.46.11,1.98.33.52.22.94.51,1.25.85.31.34.53.72.65,1.14.12.42.19.83.19,1.23,0,.59-.1,1.1-.3,1.55-.2.45-.48.82-.83,1.12s-.77.53-1.26.68c-.49.15-1.02.23-1.6.23h-2.13v4.62h-1.68v-11.75Zm3.79,5.69c.73,0,1.29-.19,1.68-.55.39-.37.59-.88.59-1.54s-.2-1.19-.61-1.58c-.41-.38-.96-.57-1.67-.57h-2.12v4.25h2.12Z"/>
          <path class="cls-5" d="m93.45,81.53h1.59v4.81c0,.78.16,1.34.48,1.68.32.35.78.52,1.37.52.46,0,.84-.09,1.14-.28.3-.19.54-.43.73-.73.19-.3.32-.64.4-1.02.08-.38.11-.77.11-1.17v-3.81h1.59v7.69c0,.17,0,.34.02.5h-1.52l-.05-1.22c-.11.14-.24.29-.39.46-.15.16-.34.31-.56.45-.22.14-.48.25-.78.34-.29.09-.63.14-1,.14-1.07,0-1.86-.31-2.36-.92-.51-.62-.76-1.46-.76-2.53v-4.92Z"/>
          <path class="cls-5" d="m103.06,77.97h1.59v4.46c.08-.11.2-.22.34-.35.15-.13.33-.25.54-.36.21-.11.46-.2.73-.27.28-.07.58-.11.93-.11.61,0,1.15.11,1.61.33.46.22.86.52,1.17.9.32.38.56.83.71,1.35s.24,1.07.24,1.66c0,.65-.11,1.24-.34,1.78-.22.54-.54,1-.94,1.39s-.89.69-1.45.91c-.56.22-1.19.33-1.87.33s-1.29-.05-1.87-.16c-.58-.11-1.04-.23-1.39-.37v-11.47Zm1.57,10.39c.16.05.37.1.61.15.24.05.6.08,1.07.08s.87-.07,1.23-.22c.36-.15.68-.35.94-.62.26-.26.47-.58.61-.95.14-.37.21-.77.21-1.21,0-.38-.04-.74-.13-1.08-.09-.35-.23-.65-.42-.92-.19-.26-.44-.48-.73-.63-.29-.16-.65-.24-1.08-.24-.39,0-.73.07-1.01.2-.29.14-.53.31-.72.53-.19.22-.34.47-.43.76-.09.29-.14.58-.14.89v3.26Z"/>
          <path class="cls-5" d="m112.7,77.97h1.59v11.75h-1.59v-11.75Z"/>
          <path class="cls-5" d="m116.42,78.29h1.78v1.78h-1.78v-1.78Zm.11,3.24h1.59v8.19h-1.59v-8.19Z"/>
          <path class="cls-5" d="m120.9,87.66c.29.29.65.53,1.06.71.41.18.89.26,1.43.26s.97-.09,1.32-.26c.35-.17.53-.44.53-.8,0-.19-.04-.35-.11-.48-.08-.13-.21-.26-.39-.36-.18-.11-.42-.2-.72-.29-.3-.09-.67-.19-1.12-.29-.32-.07-.63-.16-.94-.28-.31-.12-.59-.27-.84-.47-.25-.19-.45-.43-.6-.7-.15-.28-.23-.61-.23-1s.09-.75.27-1.05c.18-.3.43-.55.73-.76.31-.21.65-.36,1.03-.47.38-.11.78-.16,1.19-.16.69,0,1.29.09,1.79.27.5.18.94.44,1.31.77l-.86,1.09c-.25-.22-.56-.41-.93-.56-.37-.15-.8-.23-1.3-.23s-.91.08-1.22.25c-.31.16-.46.43-.46.81,0,.35.2.61.61.78.41.17.94.33,1.6.48.39.09.75.2,1.08.33s.63.28.88.48c.25.19.45.43.6.71.15.28.22.62.22,1.02s-.09.77-.28,1.08c-.19.31-.44.57-.76.78-.32.21-.68.37-1.09.48s-.84.16-1.29.16c-1.55,0-2.72-.42-3.49-1.25l.97-1.06Z"/>
          <path class="cls-5" d="m128.68,77.97h1.57v4.77c.11-.14.24-.29.39-.46.15-.16.34-.32.56-.46.22-.14.48-.26.78-.35.29-.09.63-.14,1-.14,1.07,0,1.86.31,2.38.93.52.62.78,1.47.78,2.54v4.92h-1.59v-4.79c0-.76-.16-1.32-.49-1.68-.33-.36-.79-.54-1.39-.54-.46,0-.84.09-1.15.28-.31.19-.55.43-.73.73-.18.3-.31.64-.4,1.02-.08.38-.12.77-.12,1.17v3.81h-1.59v-11.75Z"/>
          <path class="cls-5" d="m138.23,78.29h1.78v1.78h-1.78v-1.78Zm.11,3.24h1.59v8.19h-1.59v-8.19Z"/>
          <path class="cls-5" d="m142.18,89.72v-7.67c0-.11,0-.28-.02-.52h1.52l.05,1.23c.11-.14.24-.3.39-.47.15-.17.34-.33.56-.47.22-.14.48-.26.78-.35.3-.09.64-.14,1.01-.14,1.07,0,1.86.31,2.38.93.52.62.78,1.47.78,2.54v4.92h-1.59v-4.79c0-.76-.16-1.32-.49-1.68-.33-.36-.79-.54-1.39-.54-.46,0-.84.09-1.15.28-.31.19-.55.43-.73.73-.18.3-.31.64-.4,1.02-.08.38-.12.77-.12,1.17v3.81h-1.59Z"/>
          <path class="cls-5" d="m152.87,91.39c.27.19.6.35,1,.48s.87.2,1.44.2c.79,0,1.38-.22,1.76-.65.39-.43.58-1,.58-1.71v-1c-.08.07-.19.17-.33.29-.14.12-.31.24-.51.35-.21.11-.45.21-.73.3-.28.09-.61.13-.97.13-.6,0-1.13-.1-1.6-.31-.46-.21-.86-.49-1.17-.85-.32-.36-.56-.79-.72-1.29-.16-.5-.25-1.04-.25-1.63,0-.63.11-1.22.34-1.75.22-.53.54-1,.94-1.39.41-.39.89-.7,1.45-.92.56-.22,1.19-.33,1.89-.33s1.29.06,1.87.18c.58.12,1.04.25,1.39.39v7.82c0,1.19-.34,2.11-1.03,2.76s-1.65.98-2.9.98c-.83,0-1.5-.09-1.99-.27-.49-.18-.89-.39-1.2-.63l.74-1.16Zm4.8-8.42c-.11-.04-.28-.09-.54-.15-.25-.06-.63-.1-1.14-.1-.45,0-.85.07-1.22.22-.36.15-.68.35-.94.62s-.47.58-.62.94c-.15.36-.22.76-.22,1.2,0,.38.04.73.13,1.06s.23.62.42.86c.19.25.44.44.73.58s.65.21,1.08.21c.39,0,.73-.06,1.02-.18.29-.12.53-.27.72-.47.19-.19.33-.41.42-.65.09-.24.14-.49.14-.75v-3.4Z"/>
          <path class="cls-5" d="m171.29,88.43c-.41.43-.88.8-1.42,1.11-.53.31-1.2.46-2,.46-.6,0-1.13-.09-1.6-.26-.46-.17-.85-.41-1.16-.7s-.55-.65-.71-1.04-.24-.81-.24-1.26c0-.74.2-1.41.6-2.01.4-.6,1.01-1.18,1.83-1.74l-.21-.26c-.28-.35-.5-.72-.65-1.09-.15-.38-.23-.78-.23-1.2,0-.35.07-.7.21-1.03.14-.33.34-.63.61-.89.26-.26.59-.46.98-.62.39-.15.83-.23,1.32-.23.45,0,.83.06,1.15.17s.61.26.85.44c.24.18.44.39.6.62.16.23.3.47.41.71l-1.18.76c-.31-.53-.6-.88-.87-1.05-.28-.17-.57-.26-.87-.26-.51,0-.89.13-1.15.41-.26.27-.39.59-.39.95,0,.32.09.63.26.92.17.3.4.61.68.94l3.21,3.75,1.53-1.96,1.2.95-1.75,2.18,2.15,2.5h-2.05l-1.13-1.29Zm-3.76-4.33c-.61.42-1.04.83-1.3,1.21-.25.38-.38.83-.38,1.35s.18.97.53,1.32c.35.35.87.53,1.55.53.54,0,1-.12,1.37-.36.37-.24.7-.53,1-.87l-2.77-3.17Z"/>
          <path class="cls-5" d="m182.59,79.45h-4.21v-1.48h10.1v1.48h-4.2v10.27h-1.69v-10.27Z"/>
          <path class="cls-5" d="m187.53,89.72v-7.68c0-.11,0-.28-.02-.51h1.52l.05,1.32c.09-.14.22-.3.37-.47.15-.17.34-.33.56-.47.22-.14.47-.26.76-.36.29-.1.62-.15,1-.15.18,0,.34.01.48.04.15.02.28.06.41.11l-.35,1.48c-.21-.08-.48-.12-.81-.12s-.66.06-.94.19c-.29.13-.54.31-.75.54-.21.23-.38.5-.5.8-.12.31-.19.63-.19.97v4.32h-1.59Z"/>
          <path class="cls-5" d="m198.81,88.73c-.31.41-.71.72-1.21.92s-1.01.3-1.54.3c-.34,0-.68-.04-1.01-.13-.33-.09-.64-.23-.92-.44-.28-.21-.5-.47-.67-.79-.17-.32-.26-.72-.26-1.19,0-.88.31-1.59.93-2.11.62-.53,1.51-.79,2.67-.79.19,0,.39,0,.6.02.21.01.41.02.6.04.19.01.35.02.49.04.14.01.24.02.3.04v-.3c0-.61-.18-1.05-.56-1.31-.37-.26-.87-.4-1.51-.4s-1.12.09-1.48.26c-.36.17-.67.34-.92.52l-.74-1.07c.14-.12.31-.23.51-.35.2-.12.43-.23.71-.33.27-.1.58-.18.92-.25.34-.06.73-.1,1.18-.1,1.06,0,1.89.26,2.49.77.61.51.91,1.24.91,2.18v5.08c0,.11,0,.25.02.41h-1.48l-.04-.99Zm-.02-2.89s-.14-.03-.27-.04c-.14-.02-.29-.03-.47-.04-.18-.01-.36-.02-.56-.03-.2-.01-.39-.02-.58-.02-.45,0-.81.05-1.08.16-.28.11-.49.24-.65.4-.16.16-.27.33-.33.53-.06.19-.09.38-.09.55,0,.45.15.78.46,1.01.31.23.73.34,1.27.34.31,0,.6-.05.87-.16.28-.11.52-.25.73-.42s.38-.38.51-.62c.13-.23.19-.48.19-.72v-.93Z"/>
          <path class="cls-5" d="m202.48,89.72v-7.67c0-.11,0-.28-.02-.52h1.52l.05,1.23c.11-.14.24-.3.39-.47.15-.17.34-.33.56-.47.22-.14.48-.26.78-.35.3-.09.64-.14,1.01-.14,1.07,0,1.86.31,2.38.93.52.62.78,1.47.78,2.54v4.92h-1.59v-4.79c0-.76-.16-1.32-.49-1.68-.33-.36-.79-.54-1.39-.54-.46,0-.84.09-1.15.28-.31.19-.55.43-.73.73-.18.3-.31.64-.4,1.02-.08.38-.12.77-.12,1.17v3.81h-1.59Z"/>
          <path class="cls-5" d="m212.6,87.66c.29.29.65.53,1.06.71.41.18.89.26,1.43.26s.97-.09,1.32-.26c.35-.17.53-.44.53-.8,0-.19-.04-.35-.11-.48-.08-.13-.21-.26-.39-.36-.18-.11-.42-.2-.72-.29-.3-.09-.67-.19-1.12-.29-.32-.07-.63-.16-.94-.28-.31-.12-.59-.27-.84-.47-.25-.19-.45-.43-.6-.7-.15-.28-.23-.61-.23-1s.09-.75.27-1.05c.18-.3.43-.55.73-.76.31-.21.65-.36,1.03-.47.38-.11.78-.16,1.19-.16.69,0,1.29.09,1.79.27.5.18.94.44,1.31.77l-.86,1.09c-.25-.22-.56-.41-.93-.56-.37-.15-.8-.23-1.3-.23s-.91.08-1.22.25c-.31.16-.46.43-.46.81,0,.35.2.61.61.78.41.17.94.33,1.6.48.39.09.75.2,1.08.33s.63.28.88.48c.25.19.45.43.6.71.15.28.22.62.22,1.02s-.09.77-.28,1.08c-.19.31-.44.57-.76.78-.32.21-.68.37-1.09.48s-.84.16-1.29.16c-1.55,0-2.72-.42-3.49-1.25l.97-1.06Z"/>
          <path class="cls-5" d="m220.38,77.97h1.59v11.75h-1.59v-11.75Z"/>
          <path class="cls-5" d="m229.26,88.73c-.31.41-.71.72-1.21.92-.5.2-1.01.3-1.54.3-.34,0-.68-.04-1.01-.13-.33-.09-.64-.23-.92-.44-.28-.21-.5-.47-.67-.79-.17-.32-.26-.72-.26-1.19,0-.88.31-1.59.93-2.11.62-.53,1.51-.79,2.67-.79.19,0,.39,0,.6.02.21.01.41.02.6.04.19.01.35.02.49.04.14.01.24.02.3.04v-.3c0-.61-.18-1.05-.56-1.31-.37-.26-.87-.4-1.51-.4s-1.12.09-1.48.26c-.36.17-.67.34-.92.52l-.74-1.07c.14-.12.31-.23.51-.35.2-.12.43-.23.71-.33.27-.1.58-.18.92-.25.34-.06.73-.1,1.18-.1,1.06,0,1.89.26,2.49.77.61.51.91,1.24.91,2.18v5.08c0,.11,0,.25.02.41h-1.48l-.04-.99Zm-.02-2.89s-.14-.03-.27-.04c-.14-.02-.29-.03-.47-.04-.18-.01-.36-.02-.56-.03-.2-.01-.39-.02-.58-.02-.45,0-.81.05-1.08.16-.28.11-.49.24-.65.4-.16.16-.27.33-.33.53-.06.19-.09.38-.09.55,0,.45.15.78.46,1.01.31.23.73.34,1.27.34.31,0,.6-.05.87-.16.28-.11.52-.25.73-.42.21-.18.38-.38.51-.62.13-.23.19-.48.19-.72v-.93Z"/>
          <path class="cls-5" d="m233.63,82.85h-1.48v-1.32h1.48v-2.68h1.59v2.68h2.4v1.32h-2.4v4.03c0,.66.1,1.11.31,1.36.21.25.5.37.87.37.31,0,.56-.05.76-.14.2-.09.4-.23.6-.42l.72.97c-.34.33-.69.57-1.05.71-.36.15-.78.22-1.28.22-.87,0-1.51-.23-1.91-.7-.41-.47-.61-1.2-.61-2.2v-4.19Z"/>
          <path class="cls-5" d="m239.66,78.29h1.78v1.78h-1.78v-1.78Zm.11,3.24h1.59v8.19h-1.59v-8.19Z"/>
          <path class="cls-5" d="m247.56,89.97c-.63,0-1.22-.11-1.75-.34-.53-.23-.98-.54-1.37-.94-.38-.4-.68-.86-.9-1.38-.22-.52-.33-1.08-.33-1.68s.11-1.16.33-1.68.52-.98.9-1.38c.38-.4.84-.71,1.37-.94.53-.23,1.11-.34,1.75-.34s1.2.11,1.73.34c.53.23.99.54,1.38.94.39.4.69.86.91,1.38.22.52.33,1.08.33,1.68s-.11,1.16-.33,1.68c-.22.52-.52.98-.91,1.38-.39.4-.85.71-1.38.94-.53.23-1.1.34-1.73.34Zm0-1.37c.42,0,.8-.09,1.15-.26.34-.17.63-.39.86-.67.24-.28.41-.59.54-.95.12-.36.19-.73.19-1.1s-.06-.73-.19-1.08c-.12-.36-.31-.68-.55-.96-.24-.28-.53-.51-.86-.68-.33-.17-.71-.26-1.14-.26s-.81.09-1.15.26c-.34.17-.63.39-.86.67-.24.28-.41.59-.54.95-.12.36-.19.73-.19,1.1s.06.74.19,1.09c.12.35.31.67.55.95.24.28.53.51.86.68.33.17.71.26,1.14.26Z"/>
          <path class="cls-5" d="m253.7,89.72v-7.67c0-.11,0-.28-.02-.52h1.52l.05,1.23c.11-.14.24-.3.39-.47.15-.17.34-.33.56-.47.22-.14.48-.26.78-.35.3-.09.64-.14,1.01-.14,1.07,0,1.86.31,2.38.93.52.62.78,1.47.78,2.54v4.92h-1.59v-4.79c0-.76-.16-1.32-.49-1.68-.33-.36-.79-.54-1.39-.54-.46,0-.84.09-1.15.28-.31.19-.55.43-.73.73-.18.3-.31.64-.4,1.02-.08.38-.12.77-.12,1.17v3.81h-1.59Z"/>
          <path class="cls-5" d="m276.73,87.66c-.13.21-.33.45-.6.72-.27.27-.6.53-.99.77-.39.24-.83.44-1.34.61s-1.06.25-1.67.25c-.87,0-1.66-.15-2.38-.46-.72-.31-1.33-.73-1.85-1.28-.52-.55-.92-1.19-1.21-1.94-.29-.75-.43-1.56-.43-2.44s.14-1.66.43-2.41c.29-.75.69-1.41,1.21-1.97.52-.56,1.14-1.01,1.86-1.33.72-.32,1.53-.48,2.41-.48.62,0,1.18.08,1.68.23.49.15.93.34,1.3.57.37.23.69.48.95.75.26.27.48.53.64.78l-1.2,1.02c-.14-.2-.31-.41-.5-.63-.19-.22-.43-.41-.7-.59-.27-.18-.58-.32-.93-.44s-.76-.18-1.22-.18c-.65,0-1.23.12-1.74.37-.51.25-.95.58-1.3,1-.36.42-.63.92-.82,1.48-.19.56-.28,1.16-.28,1.8s.1,1.23.29,1.79c.19.56.47,1.04.82,1.45.35.41.78.73,1.29.97.51.23,1.07.35,1.69.35.53,0,.98-.07,1.37-.2.38-.13.71-.3.97-.48.26-.19.48-.38.65-.57.17-.19.31-.35.43-.48l1.18.99Z"/>
          <path class="cls-5" d="m282.03,89.97c-.63,0-1.22-.11-1.75-.34-.53-.23-.98-.54-1.37-.94-.38-.4-.68-.86-.9-1.38-.22-.52-.33-1.08-.33-1.68s.11-1.16.33-1.68c.22-.52.52-.98.9-1.38.38-.4.84-.71,1.37-.94.53-.23,1.11-.34,1.75-.34s1.2.11,1.73.34c.53.23.99.54,1.38.94.39.4.69.86.91,1.38.22.52.33,1.08.33,1.68s-.11,1.16-.33,1.68c-.22.52-.52.98-.91,1.38-.39.4-.85.71-1.38.94-.53.23-1.1.34-1.73.34Zm0-1.37c.42,0,.8-.09,1.15-.26.34-.17.63-.39.86-.67.24-.28.41-.59.54-.95.12-.36.19-.73.19-1.1s-.06-.73-.19-1.08c-.12-.36-.31-.68-.55-.96-.24-.28-.53-.51-.86-.68-.33-.17-.71-.26-1.14-.26s-.81.09-1.15.26c-.34.17-.63.39-.86.67-.24.28-.41.59-.54.95-.12.36-.19.73-.19,1.1s.06.74.19,1.09c.12.35.31.67.55.95.24.28.53.51.86.68.33.17.71.26,1.14.26Z"/>
          <path class="cls-5" d="m288.17,89.72v-7.67c0-.11,0-.28-.02-.52h1.52l.05,1.23c.09-.14.22-.3.37-.47.15-.17.33-.33.55-.47.21-.14.46-.26.75-.35.29-.09.62-.14,1-.14.63,0,1.16.13,1.58.38.42.25.74.62.98,1.1.33-.39.73-.73,1.21-1.03s1.07-.45,1.77-.45c1.06,0,1.84.31,2.34.94.51.63.76,1.47.76,2.53v4.92h-1.59v-4.79c0-.76-.15-1.32-.45-1.68-.3-.36-.74-.54-1.31-.54-.33,0-.63.07-.91.2-.28.14-.52.31-.72.54-.21.22-.36.48-.48.78-.11.3-.17.61-.17.94v4.55h-1.59v-4.79c0-.76-.15-1.32-.45-1.68s-.73-.54-1.3-.54c-.43,0-.8.09-1.09.28-.29.19-.53.43-.71.73s-.31.64-.39,1.03c-.08.39-.11.78-.11,1.16v3.81h-1.59Z"/>
          <path class="cls-5" d="m303.15,89.72v-7.67c0-.11,0-.28-.02-.52h1.52l.05,1.23c.09-.14.22-.3.37-.47.15-.17.33-.33.55-.47.21-.14.46-.26.75-.35.29-.09.62-.14,1-.14.63,0,1.16.13,1.58.38.42.25.74.62.98,1.1.33-.39.73-.73,1.21-1.03.48-.3,1.07-.45,1.77-.45,1.06,0,1.84.31,2.34.94.51.63.76,1.47.76,2.53v4.92h-1.59v-4.79c0-.76-.15-1.32-.45-1.68-.3-.36-.74-.54-1.31-.54-.33,0-.63.07-.91.2-.28.14-.52.31-.72.54-.21.22-.36.48-.48.78-.11.3-.17.61-.17.94v4.55h-1.59v-4.79c0-.76-.15-1.32-.45-1.68s-.73-.54-1.3-.54c-.43,0-.8.09-1.09.28-.29.19-.53.43-.71.73s-.31.64-.39,1.03c-.08.39-.11.78-.11,1.16v3.81h-1.59Z"/>
          <path class="cls-5" d="m318.11,78.29h1.78v1.78h-1.78v-1.78Zm.11,3.24h1.59v8.19h-1.59v-8.19Z"/>
          <path class="cls-5" d="m322.58,87.66c.29.29.65.53,1.06.71.41.18.89.26,1.43.26s.97-.09,1.32-.26c.35-.17.53-.44.53-.8,0-.19-.04-.35-.11-.48-.08-.13-.21-.26-.39-.36-.18-.11-.42-.2-.72-.29-.3-.09-.67-.19-1.12-.29-.32-.07-.63-.16-.94-.28-.31-.12-.59-.27-.84-.47-.25-.19-.45-.43-.6-.7-.15-.28-.23-.61-.23-1s.09-.75.27-1.05c.18-.3.43-.55.73-.76.31-.21.65-.36,1.03-.47.38-.11.78-.16,1.19-.16.69,0,1.29.09,1.79.27.5.18.94.44,1.31.77l-.86,1.09c-.25-.22-.56-.41-.93-.56-.37-.15-.8-.23-1.3-.23s-.91.08-1.22.25c-.31.16-.46.43-.46.81,0,.35.2.61.61.78.41.17.94.33,1.6.48.39.09.75.2,1.08.33s.63.28.88.48c.25.19.45.43.6.71.15.28.22.62.22,1.02s-.09.77-.28,1.08c-.19.31-.44.57-.76.78-.32.21-.68.37-1.09.48s-.84.16-1.29.16c-1.55,0-2.72-.42-3.49-1.25l.97-1.06Z"/>
          <path class="cls-5" d="m330.91,87.66c.29.29.65.53,1.06.71.41.18.89.26,1.43.26s.97-.09,1.32-.26c.35-.17.53-.44.53-.8,0-.19-.04-.35-.11-.48-.08-.13-.21-.26-.39-.36-.18-.11-.42-.2-.72-.29-.3-.09-.67-.19-1.12-.29-.32-.07-.63-.16-.94-.28-.31-.12-.59-.27-.84-.47-.25-.19-.45-.43-.6-.7-.15-.28-.23-.61-.23-1s.09-.75.27-1.05.43-.55.73-.76c.31-.21.65-.36,1.03-.47.38-.11.78-.16,1.19-.16.69,0,1.29.09,1.79.27.5.18.94.44,1.31.77l-.86,1.09c-.25-.22-.56-.41-.93-.56-.37-.15-.8-.23-1.3-.23s-.91.08-1.22.25c-.31.16-.46.43-.46.81,0,.35.2.61.61.78.41.17.94.33,1.6.48.39.09.75.2,1.08.33s.63.28.88.48c.25.19.45.43.6.71.15.28.22.62.22,1.02s-.09.77-.28,1.08c-.19.31-.44.57-.76.78-.32.21-.68.37-1.09.48s-.84.16-1.29.16c-1.55,0-2.72-.42-3.49-1.25l.97-1.06Z"/>
          <path class="cls-5" d="m338.66,78.29h1.78v1.78h-1.78v-1.78Zm.11,3.24h1.59v8.19h-1.59v-8.19Z"/>
          <path class="cls-5" d="m346.56,89.97c-.63,0-1.22-.11-1.75-.34-.53-.23-.98-.54-1.37-.94-.38-.4-.68-.86-.9-1.38-.22-.52-.33-1.08-.33-1.68s.11-1.16.33-1.68c.22-.52.52-.98.9-1.38.38-.4.84-.71,1.37-.94s1.11-.34,1.75-.34,1.2.11,1.73.34c.53.23.99.54,1.38.94.39.4.69.86.91,1.38.22.52.33,1.08.33,1.68s-.11,1.16-.33,1.68c-.22.52-.52.98-.91,1.38-.39.4-.85.71-1.38.94-.53.23-1.1.34-1.73.34Zm0-1.37c.42,0,.8-.09,1.15-.26.34-.17.63-.39.86-.67.24-.28.41-.59.54-.95.12-.36.19-.73.19-1.1s-.06-.73-.19-1.08c-.12-.36-.31-.68-.55-.96-.24-.28-.53-.51-.86-.68-.33-.17-.71-.26-1.14-.26s-.81.09-1.15.26c-.34.17-.63.39-.86.67-.24.28-.41.59-.54.95-.12.36-.19.73-.19,1.1s.06.74.19,1.09c.12.35.31.67.55.95.24.28.53.51.86.68.33.17.71.26,1.14.26Z"/>
          <path class="cls-5" d="m352.7,89.72v-7.67c0-.11,0-.28-.02-.52h1.52l.05,1.23c.11-.14.24-.3.39-.47.15-.17.34-.33.56-.47.22-.14.48-.26.78-.35.3-.09.64-.14,1.01-.14,1.07,0,1.86.31,2.38.93.52.62.78,1.47.78,2.54v4.92h-1.59v-4.79c0-.76-.16-1.32-.49-1.68-.33-.36-.79-.54-1.39-.54-.46,0-.84.09-1.15.28-.31.19-.55.43-.73.73s-.31.64-.4,1.02c-.08.38-.12.77-.12,1.17v3.81h-1.59Z"/>
        </g>
        <g>
          <polygon class="cls-5" points="5.62 56.38 4.53 55.28 3.45 56.38 4.53 57.47 5.62 56.38"/>
          <polygon class="cls-5" points="3.07 56.38 1.99 55.28 .91 56.38 1.99 57.47 3.07 56.38"/>
          <polygon class="cls-5" points="82.85 69.64 83.93 70.74 85.01 69.64 83.93 68.54 82.85 69.64"/>
          <path class="cls-5" d="m87.58,62.69c-.15-.02-.32-.07-.51-.13-.19-.06-.4-.15-.64-.24-.24-.1-.51-.22-.83-.36-.38-.17-.72-.32-1-.44-.29-.12-.54-.21-.76-.27-.22-.06-.42-.11-.6-.14-.18-.03-.36-.04-.53-.04-.55,0-1.02.13-1.42.37s-.76.65-1.07,1.21l.8.63c.26-.28.49-.47.69-.58.2-.1.46-.16.76-.16.15,0,.31.01.47.04.16.03.35.07.56.14.21.06.45.15.73.26.28.11.61.25.99.41l.89.38c-.3.09-.62.21-.95.36-.33.15-.7.32-1.11.52-.45.23-.87.43-1.26.59-.38.16-.74.29-1.08.39-.34.1-.67.17-.99.22s-.65.07-.99.07h-1.39c-.57,0-1.01-.1-1.32-.29-.08-.05-.14-.1-.2-.15.04-.23.07-.47.07-.73,0-.5-.08-.97-.23-1.42-.15-.45-.35-.84-.6-1.18-.25-.34-.54-.6-.88-.8-.34-.2-.69-.3-1.06-.3-.5,0-.95.15-1.35.46-.4.31-.79.79-1.16,1.46l-.98,1.74c-.13.23-.26.42-.38.58-.13.15-.27.27-.41.37-.15.09-.31.16-.49.2-.18.04-.38.06-.6.06H7.38c-.57,0-.98-.11-1.24-.32-.26-.21-.38-.57-.37-1.07l.07-5.91-1.38.24v1.06c-1.41.29-2.5.75-3.29,1.38-.79.63-1.18,1.39-1.18,2.28,0,.37.08.71.23,1,.15.3.35.54.61.74.26.2.56.35.9.45.34.1.71.16,1.11.16.66,0,1.24-.14,1.73-.42.2,1.31,1.13,1.97,2.81,1.97h61.38c.55,0,1.02-.1,1.41-.3.39-.2.75-.54,1.06-1,.36.45.79.8,1.3,1.05.51.25,1.06.37,1.65.37.85,0,1.51-.25,2-.76.02-.02.03-.05.05-.07.12.11.24.21.39.3.47.27,1.04.41,1.73.41h1.4c.38,0,.76-.03,1.12-.09.36-.06.74-.15,1.12-.28.39-.13.81-.3,1.26-.52.45-.22.95-.49,1.51-.8.42-.24.79-.45,1.12-.62.33-.17.64-.32.92-.44.28-.13.55-.24.8-.32.26-.09.52-.17.78-.24v-1.46h-.35c-.15,0-.3-.01-.45-.04Zm-84.53,1.74c-.24,0-.48-.02-.71-.06-.23-.04-.43-.1-.6-.19-.17-.09-.31-.2-.41-.34-.1-.14-.15-.31-.15-.52,0-.26.09-.49.27-.71.18-.21.42-.41.73-.57.31-.17.66-.31,1.06-.42.4-.11.81-.19,1.24-.23l.03,2.81c-.42.16-.91.24-1.47.24Zm71.24,1.67c-.47,0-.92-.11-1.35-.33-.44-.22-.78-.5-1.02-.84l.54-1.05c.43-.85.96-1.27,1.59-1.27.22,0,.43.06.64.17.2.11.38.26.54.45.16.19.28.42.37.67.09.26.13.52.13.8,0,.44-.13.78-.38,1.03-.26.24-.61.37-1.05.37Z"/>
          <polygon class="cls-5" points="101.04 60.11 99.96 59.01 98.88 60.11 99.96 61.2 101.04 60.11"/>
          <polygon class="cls-5" points="103.59 60.11 102.51 59.01 101.43 60.11 102.51 61.2 103.59 60.11"/>
          <path class="cls-5" d="m107.01,65.04c0,.16-.06.3-.18.42-.12.12-.28.21-.47.28-.19.07-.41.12-.65.15-.24.03-.49.04-.73.04h-1.4c-1.38,0-2.08-.36-2.08-1.08,0-.09.02-.34.07-.75.05-.41.1-.85.16-1.34l-1.19-.14c-.02.15-.05.33-.07.52-.02.2-.05.4-.09.59-.03.2-.07.39-.1.58-.03.19-.06.35-.09.48-.09.41-.32.7-.69.87-.37.17-.93.26-1.68.26h-1.39c-.28,0-.52-.02-.71-.05-.2-.03-.37-.1-.51-.19-.14-.09-.26-.21-.37-.37-.1-.15-.2-.34-.3-.57-.08-.19-.19-.49-.34-.92-.15-.43-.29-.86-.43-1.29l-1.31.61c.22.66.42,1.21.58,1.66.17.44.33.81.5,1.12-.13.7-.58,1.37-1.36,2-.78.64-1.81,1.2-3.09,1.69l.8,1.38c1.22-.44,2.23-1.01,3.02-1.7.79-.69,1.31-1.46,1.57-2.29.5.34,1.15.51,1.94.51h1.4c.73,0,1.36-.1,1.89-.3.53-.2.91-.49,1.14-.86.45.78,1.36,1.17,2.72,1.17h1.4c.42,0,.82-.04,1.21-.13.39-.09.74-.23,1.05-.44.31-.2.56-.47.75-.8.19-.33.29-.74.29-1.23l.07-8.64-1.38.24.05,8.54Z"/>
          <polygon class="cls-5" points="110.62 67.49 111.82 67.49 111.91 56.25 110.53 56.5 110.62 67.49"/>
          <path class="cls-5" d="m116.69,61.06c-.4,0-.76.08-1.1.25s-.63.4-.87.71c-.24.3-.44.66-.58,1.07-.14.41-.21.86-.21,1.35,0,.87.23,1.57.7,2.11.47.53,1.08.8,1.85.8.35,0,.68-.05.99-.14.31-.09.58-.23.81-.4-.38,1.48-1.83,2.39-4.34,2.74l.63,1.43c.76-.1,1.44-.3,2.06-.6.62-.3,1.14-.67,1.58-1.12.44-.45.77-.98,1.01-1.57s.36-1.24.36-1.93c0-1.49-.25-2.64-.76-3.46-.51-.82-1.21-1.23-2.12-1.23Zm.97,4.74c-.31.09-.63.14-.95.14-.5,0-.89-.13-1.18-.4-.29-.27-.43-.64-.43-1.13,0-.55.14-.99.43-1.32.28-.34.65-.51,1.11-.51.52,0,.93.25,1.23.75.3.5.47,1.21.51,2.13-.17.14-.42.26-.72.35Z"/>
          <polygon class="cls-5" points="200.78 60.44 201.86 59.34 200.78 58.24 199.7 59.34 200.78 60.44"/>
          <polygon class="cls-5" points="199.31 59.34 198.23 58.24 197.15 59.34 198.23 60.44 199.31 59.34"/>
          <polygon class="cls-5" points="200.59 57.09 199.5 55.99 198.42 57.09 199.5 58.19 200.59 57.09"/>
          <polygon class="cls-5" points="210.23 60.11 209.15 59.01 208.07 60.11 209.15 61.2 210.23 60.11"/>
          <path class="cls-5" d="m219.11,65.04c0,.16-.06.3-.18.42-.12.12-.28.21-.47.28-.19.07-.41.12-.65.15-.24.03-.49.04-.73.04h-5.58c-1.38,0-2.08-.36-2.08-1.08,0-.09.02-.34.07-.75.05-.41.1-.85.16-1.34l-1.19-.14c-.02.15-.05.33-.07.52-.02.2-.05.4-.09.59-.03.2-.07.39-.1.58-.03.19-.06.35-.09.48-.09.41-.32.7-.69.87-.37.17-.93.26-1.68.26-.57,0-1.01-.1-1.32-.29-.17-.11-.29-.25-.37-.4,0-.03.01-.06.02-.09.04-.2.08-.42.1-.68.03-.26.06-.55.09-.87.03-.33.06-.71.1-1.15l-1.19-.1c-.02.21-.05.44-.07.7-.02.26-.05.5-.08.74-.03.24-.06.46-.09.65-.03.2-.06.35-.08.45-.14.71-.66,1.06-1.57,1.06-.49,0-.86-.1-1.12-.29-.26-.19-.39-.46-.39-.81,0-.09.02-.34.07-.75.05-.41.1-.85.16-1.34l-1.19-.14c-.02.15-.05.33-.07.52-.02.2-.05.4-.09.59-.03.2-.07.39-.1.58-.03.19-.06.35-.09.48-.15.77-.71,1.15-1.69,1.15-.57,0-1.01-.13-1.33-.4-.12-.11-.23-.24-.32-.4.12-.41.23-.9.34-1.46l-1.13-.31c-.16.56-.31,1-.44,1.34-.13.34-.28.59-.44.77-.16.17-.36.29-.58.35-.23.06-.52.09-.88.1h-61.38c-.28,0-.52-.02-.71-.05-.2-.03-.37-.1-.51-.19-.14-.09-.26-.21-.37-.37-.1-.15-.2-.34-.3-.57-.08-.19-.19-.49-.34-.92-.15-.43-.29-.86-.43-1.29l-1.31.61c.22.66.42,1.21.58,1.66.17.44.33.81.5,1.12-.13.7-.58,1.37-1.36,2-.78.64-1.81,1.2-3.09,1.69l.8,1.38c1.22-.44,2.23-1.01,3.02-1.7.79-.69,1.31-1.46,1.57-2.29.5.34,1.15.51,1.94.51h61.38c.57-.01,1.04-.07,1.42-.17.38-.1.69-.3.95-.58.08-.08.15-.18.21-.28.11.18.24.35.4.48.44.37,1.02.55,1.75.55.49,0,.93-.08,1.32-.24.39-.16.71-.39.95-.7.45.63,1.17.94,2.16.94,1.06,0,1.82-.29,2.31-.87.15.18.34.33.55.46.46.27,1.04.41,1.73.41.73,0,1.36-.1,1.89-.3.53-.2.91-.49,1.14-.86.45.78,1.36,1.17,2.72,1.17h5.58c.42,0,.82-.04,1.21-.13.39-.09.74-.23,1.05-.44.31-.2.56-.47.75-.8.19-.33.29-.74.29-1.23l.07-8.64-1.38.24.05,8.54Z"/>
          <polygon class="cls-5" points="222.72 67.49 223.92 67.49 224.01 56.25 222.63 56.5 222.72 67.49"/>
          <path class="cls-5" d="m228.79,61.06c-.4,0-.76.08-1.1.25-.34.17-.63.4-.87.71-.24.3-.44.66-.58,1.07-.14.41-.21.86-.21,1.35,0,.87.23,1.57.7,2.11.46.53,1.08.8,1.85.8.35,0,.68-.05.99-.14.31-.09.58-.23.81-.4-.38,1.48-1.83,2.39-4.34,2.74l.63,1.43c.76-.1,1.44-.3,2.06-.6.62-.3,1.14-.67,1.58-1.12.44-.45.77-.98,1.01-1.57.24-.59.36-1.24.36-1.93,0-1.49-.25-2.64-.76-3.46-.51-.82-1.21-1.23-2.12-1.23Zm.97,4.74c-.31.09-.63.14-.95.14-.5,0-.89-.13-1.18-.4-.28-.27-.43-.64-.43-1.13,0-.55.14-.99.43-1.32.28-.34.65-.51,1.11-.51.52,0,.93.25,1.23.75.3.5.47,1.21.51,2.13-.17.14-.42.26-.72.35Z"/>
          <path class="cls-5" d="m248.02,62.66c-.09-.37-.2-.73-.32-1.08-.12-.35-.26-.67-.41-.95l-1.26.7c.15.29.29.6.42.92.13.32.24.65.34.97.1.32.17.62.23.91.05.29.08.55.08.77,0,.15-.13.29-.38.43-.25.13-.59.25-1.01.36-.43.1-.92.19-1.5.24-.58.06-1.19.09-1.84.09-.84,0-1.55-.04-2.14-.12-.59-.08-1.07-.21-1.44-.37-.37-.17-.64-.39-.81-.66-.17-.27-.25-.6-.25-.98,0-.3.05-.64.15-1.01.1-.37.24-.76.43-1.17l-.92-.45c-.3.52-.54,1.07-.71,1.63-.17.56-.26,1.08-.26,1.56,0,.56.12,1.04.35,1.44.23.4.59.73,1.08.99.49.26,1.11.45,1.86.57.75.12,1.64.18,2.68.18,2.03,0,3.53-.23,4.5-.69.97-.46,1.45-1.17,1.45-2.14,0-.31-.03-.66-.08-1.03-.05-.37-.12-.74-.22-1.11Z"/>
          <polygon class="cls-5" points="241.29 69.99 242.37 71.09 243.45 69.99 242.37 68.89 241.29 69.99"/>
          <path class="cls-5" d="m254.84,62.76c-.24-.45-.54-.89-.89-1.32-.35-.43-.74-.84-1.17-1.22l-1.08,1.03c.38.34.74.69,1.07,1.07.33.38.62.75.85,1.12.24.37.42.73.56,1.08.13.35.2.66.2.92,0,.07-.08.14-.24.22-.16.08-.36.14-.62.19-.26.05-.55.1-.88.13-.33.03-.67.05-1.02.05-.33,0-.67-.01-1.02-.04-.35-.03-.68-.07-.99-.13l.33,1.62c.23.03.51.06.83.09.32.02.6.03.85.03,1.41,0,2.42-.17,3.04-.52.62-.35.93-.92.93-1.72,0-.41-.07-.83-.2-1.27-.13-.44-.32-.89-.57-1.33Z"/>
          <path class="cls-5" d="m261.52,62.3c.5-.87.88-1.82,1.14-2.85.26-1.03.4-2.09.41-3.2l-1.38.24c-.01,1-.1,1.9-.26,2.69-.16.8-.41,1.52-.73,2.19-.26-.3-.53-.62-.84-.95-.3-.33-.62-.66-.94-.99-.33-.33-.65-.65-.97-.95-.32-.3-.63-.58-.92-.82l-.98,1.17c.69.5,1.37,1.07,2.05,1.71.68.64,1.32,1.3,1.91,1.97-.21.3-.44.61-.68.92-.24.31-.5.62-.76.91-.26.3-.53.58-.79.85-.27.27-.53.51-.79.71l.23,1.29c.28.13.67.23,1.16.31.49.08,1,.11,1.51.11,1.09,0,1.93-.17,2.5-.51.58-.34.86-.82.86-1.45,0-.41-.13-.87-.4-1.4-.27-.53-.71-1.18-1.34-1.96Zm-.04,3.65c-.37.13-.85.2-1.45.2-.26,0-.5,0-.73-.03-.23-.02-.45-.05-.65-.1.41-.38.79-.79,1.15-1.23.36-.44.7-.9,1.03-1.39.17.21.33.42.48.62.15.2.27.39.38.58.1.18.19.34.25.49.06.15.1.26.1.34,0,.21-.19.38-.56.51Z"/>
          <path class="cls-5" d="m258.42,55.07c-.16.01-.33.03-.51.05-.17.02-.36.05-.56.09-.3-.03-.54-.11-.72-.23-.18-.12-.27-.26-.27-.44,0-.16.07-.3.2-.4.13-.1.31-.16.51-.16.2,0,.38.05.56.16l.35-.5c-.26-.29-.58-.44-.98-.44-.37,0-.69.13-.96.39-.27.26-.4.58-.4.95,0,.42.19.74.58.96-.13.05-.26.09-.4.14-.14.05-.29.1-.45.16l.24.63c.87-.28,1.77-.45,2.69-.52l.12-.84Z"/>
          <polygon class="cls-5" points="265.26 67.49 266.46 67.49 266.55 56.25 265.17 56.5 265.26 67.49"/>
          <polygon class="cls-5" points="274.52 56.38 273.44 55.28 272.35 56.38 273.44 57.47 274.52 56.38"/>
          <polygon class="cls-5" points="277.06 56.38 275.98 55.28 274.9 56.38 275.98 57.47 277.06 56.38"/>
          <path class="cls-5" d="m340.73,60.75l.24.63c.87-.28,1.77-.45,2.69-.52l.12-.84c-.16.01-.33.03-.51.05-.17.02-.36.05-.56.09-.3-.03-.54-.11-.72-.23-.18-.12-.27-.26-.27-.44,0-.16.07-.3.2-.4.13-.1.31-.16.51-.16.2,0,.38.05.56.16l.35-.51c-.26-.29-.58-.44-.98-.44-.37,0-.69.13-.96.39-.27.26-.4.58-.4.95,0,.42.19.74.58.96-.13.05-.26.09-.4.14-.14.05-.29.1-.45.16Z"/>
          <polygon class="cls-5" points="346.66 69.99 347.74 71.09 348.82 69.99 347.74 68.89 346.66 69.99"/>
          <polygon class="cls-5" points="349.21 69.99 350.29 71.09 351.37 69.99 350.29 68.89 349.21 69.99"/>
          <path class="cls-5" d="m360.32,62.83c-.23-.63-.55-1.22-.98-1.76-.43-.54-.94-1.03-1.53-1.46-.6-.43-1.27-.78-2.01-1.05l-.59,1.34c.64.22,1.22.51,1.75.86.53.35.98.76,1.35,1.21.37.45.66.94.86,1.46.2.52.31,1.05.31,1.61,0,.27-.19.48-.56.64-.37.16-.85.24-1.43.24-.14,0-.27,0-.4,0-.13,0-.26-.01-.38-.03.57-.53.85-1.21.85-2.02,0-.38-.06-.75-.19-1.09-.13-.34-.3-.64-.53-.9-.23-.26-.49-.46-.79-.6-.3-.15-.63-.22-.98-.22s-.67.07-.98.22c-.3.15-.57.35-.79.6-.23.26-.4.55-.53.89-.13.34-.19.7-.19,1.1,0,.77.27,1.42.82,1.97-.26.02-.52.04-.8.05-.28.01-.57.02-.87.02-1.38,0-2.08-.36-2.08-1.08,0-.09.02-.34.07-.75.05-.41.1-.85.16-1.34l-1.19-.14c-.02.15-.05.33-.07.52-.02.2-.05.4-.09.59-.03.2-.07.39-.1.58-.03.19-.06.35-.09.48-.09.41-.32.7-.69.87-.37.17-.93.26-1.68.26h-1.4c-1.38,0-2.08-.36-2.08-1.08,0-.09.02-.34.07-.75.05-.41.1-.85.16-1.34l-1.19-.14c-.02.15-.05.33-.07.52-.02.2-.05.4-.09.59-.03.2-.07.39-.1.58-.03.19-.06.35-.09.48-.09.41-.32.7-.69.87-.37.17-.93.26-1.68.26h-59.99c-.57,0-.98-.11-1.24-.32-.26-.21-.38-.57-.37-1.07l.07-5.91-1.38.24v1.06c-1.41.29-2.5.75-3.29,1.38-.79.63-1.18,1.39-1.18,2.28,0,.37.08.71.23,1,.15.3.35.54.61.74.26.2.55.35.9.45.34.1.71.16,1.11.16.66,0,1.24-.14,1.73-.42.2,1.31,1.13,1.97,2.81,1.97h59.99c.73,0,1.36-.1,1.89-.3.53-.2.91-.49,1.14-.86.45.78,1.36,1.17,2.72,1.17h1.4c.73,0,1.36-.1,1.89-.3.53-.2.91-.49,1.14-.86.45.78,1.36,1.17,2.72,1.17.49,0,1.02-.05,1.6-.17.58-.11,1.13-.26,1.66-.44.41.19.84.33,1.29.44.45.11.88.17,1.27.17.99,0,1.76-.24,2.3-.71.55-.47.82-1.14.82-2,0-.67-.11-1.33-.34-1.96Zm-85.83,1.59c-.24,0-.48-.02-.71-.06-.23-.04-.43-.1-.6-.19-.17-.09-.31-.2-.41-.34-.1-.14-.15-.31-.15-.52,0-.26.09-.49.27-.71.18-.21.42-.41.73-.57.31-.17.66-.31,1.06-.42.39-.11.81-.19,1.24-.23l.04,2.81c-.42.16-.91.24-1.46.24Zm80.55,1.06c-.43-.19-.77-.42-1.01-.69-.24-.27-.37-.58-.37-.91,0-.41.13-.74.4-1.01.27-.27.6-.4.99-.4s.73.14.99.41c.27.27.4.61.4,1,0,.74-.47,1.28-1.41,1.6Z"/>
        </g>
      </g>
    </g>
  </g>
</svg>